<svg xmlns:xlink="http://www.w3.org/1999/xlink" xmlns="http://www.w3.org/2000/svg" class="css-1gfxcvj" width="36"  height="36" ><defs><symbol viewBox="0 0 24 24" id="content-customer"><path fill-rule="evenodd" d="M6.99 7.003a5.003 5.003 0 0 0 5 5.002A5.003 5.003 0 0 0 11.99 2c-2.76 0-5 2.241-5 5.003Zm1.5-.01a3.505 3.505 0 0 1 3.5-3.502c1.93 0 3.5 1.57 3.5 3.501a3.505 3.505 0 0 1-3.5 3.502c-1.93 0-3.5-1.57-3.5-3.502ZM19.5 21.25a.75.75 0 1 0 1.5 0c0-4.833-4.04-8.765-9-8.765s-9 3.932-9 8.765c0 .41.34.75.75.75s.75-.34.75-.75c0-4.012 3.36-7.264 7.5-7.264 4.14 0 7.5 3.262 7.5 7.264Z" clip-rule="evenodd"></path></symbol></defs><use xlink:href="#content-customer" class="css-12013bn" fill="#FFFFFF"></use></svg>