<svg xmlns:xlink="http://www.w3.org/1999/xlink" xmlns="http://www.w3.org/2000/svg" viewBox="0 0 24 24" class="css-1x39n4y" width="36"  height="36" ><defs><g id="USP/ATOL" fill="#071A26"><path d="M10.488 4.11h-.005l-.28.107-.019-.16.353-.133.173.023-.199 1.507-.197-.026.174-1.318Z" fill="#071A26"></path><path fill-rule="evenodd" d="M12.167 4.889c-.067.512-.295.77-.628.726-.295-.039-.458-.341-.397-.84.066-.506.321-.756.627-.715.317.042.462.348.398.829Zm-.821-.085c-.052.392.039.63.224.655.209.027.341-.203.392-.588.049-.37-.014-.627-.225-.655-.179-.024-.337.177-.391.588ZM12.557 5.57a.877.877 0 0 1-.164-.015l-.023.167a.968.968 0 0 0 .19.013.763.763 0 0 0 .464-.144c.167-.124.31-.341.354-.673.05-.385-.108-.66-.416-.701-.309-.04-.548.183-.585.468-.035.257.112.484.384.52.15.02.28-.024.377-.115h.007a.67.67 0 0 1-.253.376.575.575 0 0 1-.335.104Zm.271-.514c-.175-.023-.271-.17-.247-.358.028-.214.17-.35.344-.327.214.028.283.238.25.495a.134.134 0 0 1-.029.072.34.34 0 0 1-.318.118ZM13.479 5.455c.025-.19.156-.31.352-.364v-.007c-.157-.1-.212-.24-.195-.37.031-.239.255-.375.52-.34.291.04.413.241.388.43-.017.127-.097.256-.295.319v.007c.178.1.276.247.253.43-.035.262-.283.409-.571.37-.316-.041-.481-.254-.452-.475Zm.813.098c.024-.183-.091-.288-.288-.373-.184.028-.294.131-.313.275-.027.152.071.302.264.328.184.024.316-.074.337-.23Zm-.462-.828c-.02.151.083.247.251.317.136-.027.247-.107.266-.244.016-.12-.04-.255-.223-.28-.17-.021-.277.078-.294.207ZM14.94 5.885a.837.837 0 0 1-.164-.015l-.023.166a.968.968 0 0 0 .19.014.763.763 0 0 0 .464-.144c.168-.124.31-.342.353-.674.05-.384-.107-.66-.415-.7-.308-.041-.547.182-.585.467-.034.258.113.485.384.52.15.021.28-.023.377-.115l.007.001a.67.67 0 0 1-.253.375.574.574 0 0 1-.334.105Zm.271-.515c-.175-.023-.271-.17-.247-.357.028-.214.171-.35.344-.328.214.028.283.238.25.495a.135.135 0 0 1-.029.072.339.339 0 0 1-.318.118Z" clip-rule="evenodd" fill="#071A26"></path><path d="m9.257 13.55-.293.311.453.081-.16-.393ZM12.188 14.563a.264.264 0 0 1-.09-.258.264.264 0 0 1 .174-.21.664.664 0 0 1 .367-.02.66.66 0 0 1 .337.144c.076.07.106.157.088.258a.267.267 0 0 1-.171.211.66.66 0 0 1-.366.02.67.67 0 0 1-.339-.146Z" fill="#071A26"></path><path fill-rule="evenodd" d="m10.638 6.006-1.47-.261-1.642 9.326 7.47 1.316.495-2.786s-2.415.296-4.18-1.55c-1.767-1.845-1.78-4.039-.673-6.045Zm-1.13 7.375-.42-.074-.796.787.39.069.152-.163.66.117.081.204.404.073-.472-1.013Zm2.15.382-1.443-.256-.029.16.535.094-.13.741.374.066.131-.74.533.095.028-.16Zm1.574.36c-.122-.093-.31-.163-.565-.207-.254-.046-.455-.046-.602 0-.195.051-.307.159-.337.324-.028.161.04.301.205.419.122.094.31.163.565.209.255.045.455.045.602-.002.195-.053.306-.161.335-.323.03-.165-.038-.305-.203-.42Zm.567.021-.16.9 1.255.223.028-.162-.882-.156.131-.739-.372-.066Z" clip-rule="evenodd" fill="#071A26"></path><path d="M15.57 13.158s-2.116-.027-3.168-2.121c-1.451-2.895 1.57-4.45 1.57-4.45l2.68.477-1.082 6.094Z" fill="#071A26"></path><path fill-rule="evenodd" d="M4.043 13.668c.013.05.023.101.032.152l.01.056.82-.224c.134.492.335.818.82.686.308-.085.405-.331.302-.71l-.184-.672-1.87.51.019.05c.018.05.037.1.05.152Zm1.016-.047-.003-.01.752-.206.046.17c.039.142-.075.293-.293.353-.167.045-.34.022-.437-.142-.028-.05-.047-.109-.065-.165ZM6.303 14.466l.305.52.015.024c.068.115.162.274.168.4a.422.422 0 0 1-.224.416c-.239.14-.48.076-.662-.123a13.12 13.12 0 0 0-.341.654l-.09.18-.096.185-.031-.064a2.433 2.433 0 0 0-.087-.166c-.03-.05-.064-.1-.098-.15-.014-.02-.029-.04-.043-.062l.342-.59.104-.185.074-.133-.01-.017-.783.46-.009-.02-.013-.027a1.742 1.742 0 0 0-.073-.144 1.823 1.823 0 0 0-.12-.176l1.672-.982Zm-.57.827c.126.27.322.325.573.179a.695.695 0 0 0 .115-.085c.165-.145.071-.3-.013-.44a4.486 4.486 0 0 1-.022-.038l-.653.384ZM6.455 16.582c-.422.483-.348 1.037.122 1.449.52.457 1.15.383 1.51-.034.287-.332.482-.916-.124-1.447-.529-.464-1.137-.392-1.508.032Zm.244 1.331c-.319-.28-.187-.683.055-.96.417-.477.79-.546 1.085-.287.318.28.17.707-.07.982-.309.353-.742.552-1.07.265Z" clip-rule="evenodd" fill="#071A26"></path><path d="m8.923 19.441-.027-.015c-.045-.024-.09-.05-.138-.07a1.688 1.688 0 0 0-.2-.071l.69-1.597a3.896 3.896 0 0 0-.499-.172l.007-.01.01-.018a.55.55 0 0 0 .044-.078c.012-.026.02-.055.026-.083l.009-.032 1.335.579-.013.021c-.017.027-.034.053-.047.082-.013.03-.02.059-.027.088l-.008.03a4.35 4.35 0 0 0-.448-.238l-.69 1.597-.024-.013ZM11.521 18.131l.008-.023-1.061-.18-.322 1.898 1.062.181v-.025c0-.032 0-.066.006-.097.005-.03.015-.06.025-.088l.01-.03a5.28 5.28 0 0 1-.651-.07l.12-.709.29.05c.125.02.237.052.338.083v-.025c0-.032.001-.066.006-.098.005-.03.016-.062.027-.093l.008-.024a2.555 2.555 0 0 1-.347-.033l-.29-.049.102-.6c.285.043.47.098.637.149v-.027c0-.032 0-.066.006-.096.005-.031.016-.063.026-.094ZM13.553 19.595l-.039.248c-.16.104-.357.157-.545.175-.602.058-1.094-.269-1.15-.846-.071-.735.403-1.12 1.016-1.179.186-.017.415.009.587.082-.01.06-.016.12-.023.181l-.013.116-.04.003a.591.591 0 0 0-.492-.214c-.467.045-.613.511-.572.925.046.482.315.797.748.755a.796.796 0 0 0 .484-.26l.039.014ZM14.953 19.461c.047-.018.096-.033.145-.047l.022-.007.017-.005.018-.005-.635-1.62c.158-.062.319-.104.48-.146l.005-.002-.007-.012-.007-.012c-.016-.026-.032-.053-.044-.084-.01-.028-.017-.057-.023-.087l-.003-.015-.003-.014-1.356.533.008.012.006.01c.016.027.032.055.043.083a.586.586 0 0 1 .032.119c.13-.072.288-.156.474-.23l.635 1.62.04-.02c.05-.025.1-.05.152-.07ZM16.04 16.62l.01.022c.015.03.03.06.048.086.017.024.04.047.061.07l.02.021a4 4 0 0 0-.556.345l.35.496.24-.17c.104-.073.193-.149.27-.22l.01.018c.014.03.03.062.049.09.016.024.038.046.06.068l.011.012.01.01a2.532 2.532 0 0 0-.299.18l-.24.17.414.586c.233-.168.382-.29.51-.409l.011.022c.015.03.03.06.048.086a.573.573 0 0 0 .06.069l.01.01.011.013-.88.62-1.109-1.574.88-.62Z" fill="#071A26"></path><path fill-rule="evenodd" d="M18.16 15.543c-.363-.288-.848-.354-1.24.107l-.6.759 1.51 1.195.49-.622c.36-.455.341-1.043-.16-1.44Zm-.046 1.437-.15.189-1.252-.992.171-.217c.248-.313.567-.38.984-.05.52.41.488.764.247 1.07Z" clip-rule="evenodd" fill="#071A26"></path><path fill-rule="evenodd" d="M23 12c0 6.075-4.925 11-11 11S1 18.075 1 12 5.925 1 12 1s11 4.925 11 11Zm-1.833 0a9.167 9.167 0 1 1-18.334 0 9.167 9.167 0 0 1 18.334 0Z" clip-rule="evenodd" fill="#071A26"></path></g></defs><use href="#USP/ATOL" fill="#FFFFFF"></use></svg>