<svg xmlns:xlink="http://www.w3.org/1999/xlink" xmlns="http://www.w3.org/2000/svg" viewBox="0 0 24 24" class="css-1x39n4y" width="36"  height="36" ><defs><g id="USP/PriceMatch" fill="#071A26"><g clip-path="url(#clip0_126_92)" fill="#071A26"><path d="M9.216 20.852c-.58 0-1.14-.23-1.549-.64l-5.017-5c-.86-.85-.86-2.24 0-3.09.86-.85 2.248-.85 3.108 0l3.468 3.45 9.026-8.98c.83-.83 2.279-.83 3.108 0 .86.85.86 2.24 0 3.09l-10.595 10.53c-.41.41-.969.64-1.549.64ZM4.2 12.982c-.18 0-.35.07-.49.2-.27.27-.27.7 0 .97l5.018 5c.26.25.72.26.969 0l10.585-10.53c.13-.13.2-.3.2-.48s-.07-.36-.2-.48a.681.681 0 0 0-.97 0L9.216 17.702l-4.527-4.51a.7.7 0 0 0-.49-.21Z" fill="#071A26"></path><path id="Accent" fill="#FFBC2B" d="M5.548 4.533c.02-.07.03-.13.05-.2.1-.35.25-.67.49-.94.12-.14.27-.27.43-.36.39-.22.78-.23 1.18-.07.289.11.509.3.689.56.2.28.29.6.32.94.03.29-.01.58-.07.87-.08.35-.19.7-.32 1.03-.25.65-.56 1.28-.89 1.89-.02.02-.03.02-.05.02-.56-.09-1.11-.19-1.649-.34-.42-.11-.83-.24-1.23-.4-.3-.12-.579-.27-.819-.47-.17-.13-.32-.29-.44-.47-.23-.35-.34-.73-.28-1.14.04-.3.16-.56.36-.77.12-.13.26-.22.42-.29.35-.15.72-.16 1.09-.1.24.04.47.12.69.22.02.01.02.01.03.02Z"></path></g><defs><clipPath><path d="M0 0h24v24H0z"></path></clipPath></defs></g></defs><use href="#USP/PriceMatch" fill="#FFFFFF"></use></svg>