<svg xmlns:xlink="http://www.w3.org/1999/xlink" xmlns="http://www.w3.org/2000/svg" viewBox="0 0 24 24" class="css-1x39n4y" width="36"  height="36" ><defs><g id="USP/PayMonthlyPound" fill="#071A26"><g clip-path="url(#clip0_126_106)" fill="#071A26"><path fill-rule="evenodd" d="M3.81 11.032c0 3.84 3.002 6.988 6.789 7.235a5.956 5.956 0 0 0 5.456 3.585c3.269 0 5.938-2.66 5.948-5.92a5.96 5.96 0 0 0-3.682-5.488c-.301-3.726-3.434-6.662-7.244-6.662-.24 0-.48.01-.71.03a.75.75 0 0 0-.67.82c.04.41.4.71.8.67.19-.02.38-.03.57-.03 3.179 0 5.768 2.59 5.768 5.76 0 3.18-2.59 5.76-5.768 5.76-3.179 0-5.768-2.59-5.768-5.76 0-.36.03-.72.1-1.07a.746.746 0 1 0-1.47-.27c-.08.44-.12.89-.12 1.34Zm8.428 7.158a7.272 7.272 0 0 0 6.03-6.107 4.453 4.453 0 0 1 2.235 3.85c0 2.44-1.999 4.43-4.448 4.43a4.45 4.45 0 0 1-3.817-2.173Zm.988-4.968c0-.39-.26-.59-.64-.59v.01H9.897v-.02c.29-.26.45-.61.48-1.19h1.81c.36 0 .61-.23.61-.57 0-.38-.25-.57-.61-.57h-1.91c-.03-.18-.04-.35-.04-.53 0-.56.29-.87.87-.87.37 0 .62.1.81.28.12.12.29.21.49.21.35 0 .59-.25.59-.61 0-.13-.05-.3-.16-.42-.35-.4-.96-.65-1.78-.65-1.41 0-2.16.73-2.16 2.05 0 .19.02.36.05.52h-.07c-.37 0-.62.19-.62.57 0 .34.25.57.62.57h.25c-.01.63-.23.97-.55 1.25-.15.13-.23.31-.23.53 0 .38.27.62.69.62h3.55c.38 0 .639-.24.639-.59Z" clip-rule="evenodd" fill="#071A26"></path><path id="Accent" fill="#FFBC2B" d="M5.59 4.523c.02-.07.029-.13.049-.2.1-.35.25-.67.49-.94.12-.14.26-.26.43-.36.38-.22.77-.22 1.17-.06.28.11.51.3.679.55.19.29.29.6.31.94.03.29-.01.58-.07.87-.07.35-.19.69-.31 1.03-.25.65-.56 1.27-.89 1.88-.01.02-.02.02-.05.02-.55-.09-1.1-.2-1.639-.34-.42-.11-.83-.23-1.22-.4-.29-.12-.57-.26-.81-.46-.17-.14-.32-.29-.44-.47-.229-.35-.329-.73-.269-1.14.04-.29.16-.55.36-.77.11-.13.25-.22.41-.29.35-.15.72-.16 1.09-.1.24.04.47.12.68.22.01.01.02.02.03.02Z"></path></g><defs><clipPath><path d="M0 0h24v24H0z"></path></clipPath></defs></g></defs><use href="#USP/PayMonthlyPound" fill="#FFFFFF"></use></svg>