<svg xmlns:xlink="http://www.w3.org/1999/xlink" xmlns="http://www.w3.org/2000/svg" class="css-1gfxcvj" width="36"  height="36" ><defs><symbol viewBox="0 0 24 24" id="toggles-favoriteoff"><path d="M12.08 20.5c-.15 0-.29-.04-.42-.13a49.731 49.731 0 0 1-4.26-3.19c-1.23-1.02-2.18-1.93-3-2.86-.78-.89-1.33-1.68-1.71-2.49-.33-.7-.54-1.37-.63-2.06-.2-1.49.1-2.84.9-4.01.61-.89 1.41-1.53 2.38-1.9.57-.22 1.2-.31 1.85-.28 1.22.06 2.39.49 3.55 1.31.43.3.85.66 1.23 1.06.82-.88 1.72-1.51 2.74-1.95.63-.27 1.28-.43 1.91-.48 1.49-.12 2.8.4 3.89 1.54.6.63 1.03 1.39 1.26 2.2.38 1.35.28 2.72-.31 4.17-.32.78-.79 1.56-1.45 2.39-.64.8-1.41 1.6-2.34 2.46-1.51 1.39-3.2 2.73-5.17 4.09-.12.08-.27.13-.42.13ZM11.4 7.55c-.5-.62-.98-1.07-1.51-1.44-.92-.65-1.83-.99-2.76-1.03h-.18c-.38 0-.74.06-1.06.19-.7.25-1.25.7-1.69 1.34-.59.86-.8 1.83-.65 2.96.07.53.24 1.06.5 1.62.32.68.79 1.36 1.48 2.14.77.87 1.67 1.72 2.83 2.7 1.15.96 2.37 1.88 3.71 2.8 1.73-1.22 3.23-2.42 4.59-3.67.88-.81 1.59-1.56 2.18-2.3.57-.71.97-1.37 1.23-2.01.46-1.13.54-2.18.26-3.2-.16-.58-.47-1.12-.9-1.57-.77-.81-1.65-1.16-2.69-1.08-.47.05-.94.17-1.43.37-.88.37-1.65.94-2.37 1.74-.09.1-.17.2-.25.3l-.13.15c-.14.17-.35.27-.57.27-.22 0-.43-.1-.57-.27"></path></symbol></defs><use xlink:href="#toggles-favoriteoff" class="css-12013bn" fill="#FFFFFF"></use></svg>