<svg xmlns:xlink="http://www.w3.org/1999/xlink" xmlns="http://www.w3.org/2000/svg" class="css-11sqcya" width="28"  height="28" ><defs><symbol viewBox="0 0 24 24" id="navigation-menu"><path fill-rule="evenodd" d="M21.23 5.5H2.77A.76.76 0 0 1 2 4.745C2 4.328 2.34 4 2.77 4h18.46c.43 0 .77.338.77.745s-.34.755-.77.755Zm0 7.25H2.77c-.43 0-.77-.33-.77-.75s.34-.75.77-.75h18.46c.42 0 .77.34.77.75s-.34.75-.77.75ZM2.77 20h18.46c.43 0 .77-.34.77-.75s-.35-.75-.77-.75H2.77a.76.76 0 0 0-.77.75c0 .41.34.75.77.75Z" clip-rule="evenodd"></path></symbol></defs><use xlink:href="#navigation-menu" class="css-12013bn" fill="#FFFFFF"></use></svg>